<svg data-name="Layer 1" xmlns="http://www.w3.org/2000/svg" viewBox="0 0 133.3 234.6">
  <path d="M98.155 43.377H35.147v153.017h63.008zm-61.44 4.51a2.926 2.926 0 1 1 2.924 2.925 2.925 2.925 0 0 1-2.924-2.925zm54.006 0a2.926 2.926 0 1 1 2.924 2.925 2.925 2.925 0 0 1-2.924-2.925zM36.715 191.9a2.926 2.926 0 1 1 2.924 2.926 2.924 2.924 0 0 1-2.924-2.926zm54.006 0a2.926 2.926 0 1 1 2.924 2.926 2.924 2.924 0 0 1-2.924-2.926z" fill="#007481"/>
  <path fill="#dadbdc" d="M62.927 81.617l.012-.32.039-.32.066-.31.088-.308.12-.301.134-.293.164-.278.188-.259.2-.247.227-.227.245-.213.254-.193.271-.166.288-.146.298-.118.305-.095.315-.071.318-.049.32-.019.32.005.318.034.32.063.305.079.303.112.291.134.278.152.266.181.257.197.229.22.215.237.201.257.171.271.146.288.132.291.103.3.078.313.054.32.024.32v.32l-.024.317-.054.32-.078.311-.103.303-.132.293-.146.283-.171.274-.201.254-.215.239-.229.22-.257.198-.266.181-.278.153-.291.132-.303.113-.305.08-.32.059-.318.034-.32.007-.32-.019-.318-.046-.315-.076-.305-.091-.298-.122-.288-.146-.271-.166-.254-.193-.245-.213-.227-.225-.2-.249-.188-.256-.164-.279-.134-.293-.12-.3-.088-.308-.066-.31-.039-.323-.012-.317"/>
  <path fill="none" d="M63.531 81.894l.038.262.05.263.075.263.1.262.125.238.138.238.15.225.175.212.187.188.213.175.213.175.237.138.238.125.25.1.263.075.262.062.275.038.276.025.262-.013.275-.025.276-.05.25-.075.262-.087.25-.113.226-.137.237-.15.213-.163.2-.188.175-.2.175-.225.138-.225.125-.25.112-.238.088-.262.062-.263.05-.275.025-.263v-.275l-.025-.275-.05-.263-.062-.262-.088-.263-.112-.25-.125-.238-.138-.237-.175-.213-.175-.2-.2-.188-.213-.162-.237-.163-.226-.125-.25-.113-.262-.1-.25-.062-.276-.05-.275-.038h-.262l-.276.013-.275.05-.262.05-.263.087-.25.1-.238.126-.237.137-.213.163-.213.187-.187.188-.175.213-.15.212-.138.238-.125.25-.1.25-.075.263-.05.262-.038.275-.012.276.012.275z"/>
  <path fill="#8c9091" d="M58.481 78.755h2.14v5.587h-2.14zM72.678 78.755h2.142v5.587h-2.142z"/>
  <path d="M73.137 76.979H59.9v9.142h13.237zm-7.417 7.779l-.25-.1-.238-.125L65 84.4l-.426-.35-.187-.188-.175-.212-.15-.225-.138-.238-.125-.238-.1-.262-.075-.263-.05-.263-.038-.262-.012-.275.012-.276.038-.275.05-.262.075-.263.1-.25.125-.25.138-.238.15-.212.175-.213.187-.188.213-.187.213-.168.237-.137.238-.126.25-.1.263-.087.262-.05.275-.05.276-.013h.262l.275.038.276.05.25.062.262.1.25.113.226.125.237.163.213.162.2.188.175.2.175.213.138.237.125.238.112.25.088.263.062.262.05.263.025.275v.275l-.025.263-.05.275-.062.263-.088.262-.112.238-.125.25-.138.225-.175.225-.175.2-.2.188-.213.163-.237.15-.226.137-.25.113-.262.087-.25.075-.276.05-.275.025-.262.013-.276-.025-.275-.038-.262-.062zM71.01 54.9h1.39a.231.231 0 0 1 .231.231v5.18a.232.232 0 0 1-.232.232h-1.39a.229.229 0 0 1-.229-.229v-5.185a.23.23 0 0 1 .23-.229zM69.971 60.313V55.13a.231.231 0 0 0-.229-.231H68.35a.233.233 0 0 0-.234.231v5.183a.231.231 0 0 0 .234.229h1.392a.229.229 0 0 0 .229-.229zM65.689 54.9h1.39a.231.231 0 0 1 .231.231v5.183a.229.229 0 0 1-.229.229h-1.4a.229.229 0 0 1-.229-.229V55.13a.231.231 0 0 1 .237-.23zM63.023 54.9h1.394a.229.229 0 0 1 .229.229v5.183a.231.231 0 0 1-.231.231h-1.392a.229.229 0 0 1-.229-.229v-5.186a.229.229 0 0 1 .229-.228zM60.362 54.9h1.392a.231.231 0 0 1 .231.231v5.18a.231.231 0 0 1-.231.231h-1.395a.229.229 0 0 1-.229-.229V55.13a.231.231 0 0 1 .232-.23z" fill="#c3c5c6"/>
  <path fill="#9fa1a2" d="M51.746 34.739h29.809v22.842H51.746z"/>
  <path fill="#8c9091" d="M51.746 55.297v2.284h29.81v-2.284H51.746zM51.746 50.729v2.284h29.81v-2.284H51.746zM51.746 46.16v2.285h29.81V46.16H51.746zM51.746 41.592v2.284h29.81v-2.284H51.746zM51.746 37.023v2.285h29.81v-2.285H51.746z"/>
  <path fill="#81b8bd" d="M59.392 92.671h1.249v12.796h-1.249z"/>
  <g fill="#81b8bd">
    <path d="M62.086 94.73h2.334v1.249h-2.334zM62.086 97.19h2.334v1.249h-2.334zM62.086 99.649h2.334v1.249h-2.334zM62.086 102.109h2.334v1.249h-2.334z"/>
  </g>
  <path fill="#81b8bd" d="M57.048 92.671h1.249v12.796h-1.249zM54.704 92.671h1.249v12.796h-1.249zM52.36 92.671h1.249v12.796H52.36zM50.017 92.671h1.249v12.796h-1.249zM47.673 92.671h1.249v12.796h-1.249z"/>
  <path d="M63.253 104.188v-1.215l-.003-9.044-1.602-.003v.001l-16.087-.026v1.215h.001l.002 7.83h-.002l.003 1.212 17.688.03z"/>
  <path fill="#8c9091" d="M44.889 54.27v-7.906h3.149v7.906z"/>
  <path d="M46.464 52.745a2.431 2.431 0 1 1 2.436-2.431 2.432 2.432 0 0 1-2.436 2.431z" fill="#eba900"/>
  <g data-name="Artwork 12">
    <path fill="#8c9091" d="M79.004 89.101h5.66v2.805h-5.66zM79.004 96.264h5.66v2.805h-5.66z"/>
    <path d="M79.646 96.57a1.1 1.1 0 0 0 1.093 1.093h2.188a1.1 1.1 0 0 0 1.095-1.093v-.306h-4.376zM84.022 91.6a1.1 1.1 0 0 0-1.095-1.095h-2.188a1.1 1.1 0 0 0-1.093 1.095v.306h4.376z" fill="#8b7866"/>
    <path d="M79.646 91.907h4.376v4.358h-4.376z"/>
  </g>
  <g data-name="Artwork 12">
    <path fill="#8c9091" d="M55.501 63.474h5.66v2.805h-5.66zM55.501 70.636h5.66v2.805h-5.66z"/>
    <path d="M56.142 70.942a1.1 1.1 0 0 0 1.093 1.093h2.188a1.1 1.1 0 0 0 1.095-1.093v-.306h-4.376zM60.518 65.973a1.1 1.1 0 0 0-1.095-1.095h-2.188a1.1 1.1 0 0 0-1.093 1.095v.306h4.376z" fill="#8b7866"/>
    <path d="M56.142 66.279h4.376v4.358h-4.376z"/>
  </g>
  <g data-name="Artwork 8">
    <path d="M45.549 68.57a.529.529 0 0 0 .529.529V68.04a.529.529 0 0 0-.529.53zM50.682 68.57a.53.53 0 0 0-.53-.53v1.06a.529.529 0 0 0 .53-.53zM45.549 69.63a.529.529 0 0 0 .529.53V69.1a.528.528 0 0 0-.529.53zM50.682 69.63a.529.529 0 0 0-.53-.529v1.059a.53.53 0 0 0 .53-.53z" fill="#8c9091"/>
    <path d="M50.152 69.101V68.04H46.078v2.12H50.152v-1.059z"/>
  </g>
  <g data-name="Artwork 8">
    <path d="M45.549 65.665a.529.529 0 0 0 .529.529v-1.059a.529.529 0 0 0-.529.53zM50.682 65.665a.53.53 0 0 0-.53-.53v1.059a.529.529 0 0 0 .53-.529zM45.549 66.725a.529.529 0 0 0 .529.53V66.2a.529.529 0 0 0-.529.525zM50.682 66.725a.529.529 0 0 0-.53-.529v1.059a.53.53 0 0 0 .53-.53z" fill="#8c9091"/>
    <path d="M50.152 66.196v-1.061H46.078v2.12H50.152v-1.059z"/>
  </g>
  <g data-name="Disegno 5">
    <path d="M65.594 65.135h5.473v8.307h-5.473z"/>
    <path fill="#8c9091" d="M62.468 65.845h3.957v1.435h-3.957zM62.468 71.297h3.957v1.435h-3.957zM69.576 65.845h3.959v1.435h-3.959zM69.576 71.297h3.959v1.435h-3.959z"/>
  </g>
  <g data-name="Disegno 8">
    <path d="M72.4 97.937v2.308h.009a1.131 1.131 0 0 0 2.26 0h.008v-2.308a1.138 1.138 0 0 0-2.276 0z" fill="#8c9091"/>
    <path fill="#8b7866" d="M72.396 98.242h2.277v1.684h-2.277z"/>
    <path d="M72.396 98.242h2.277v1.684h-2.277z"/>
  </g>
  <g data-name="Disegno 8">
    <path d="M86.711 61.48v2.307h.009a1.131 1.131 0 0 0 2.26 0h.008V61.48a1.138 1.138 0 1 0-2.276 0z" fill="#8c9091"/>
    <path d="M86.71 61.785h2.277v1.684H86.71z"/>
  </g>
  <g data-name="Disegno 8">
    <path d="M52.423 66.907v2.308h.009a1.13 1.13 0 0 0 2.259 0h.009v-2.308a1.138 1.138 0 1 0-2.276 0z" fill="#8c9091"/>
    <path fill="#8b7866" d="M52.422 67.213h2.277v1.684h-2.277z"/>
    <path d="M52.422 67.213h2.277v1.684h-2.277z"/>
  </g>
  <g data-name="Disegno 8">
    <path d="M45.327 59.43v2.307h.009a1.13 1.13 0 0 0 2.259 0h.005V59.43a1.138 1.138 0 1 0-2.276 0z" fill="#8c9091"/>
    <path d="M45.326 59.735h2.277v1.684h-2.277z"/>
  </g>
  <g data-name="Disegno 8">
    <path d="M86.711 100.805v2.308h.009a1.131 1.131 0 0 0 2.26 0h.008v-2.308a1.138 1.138 0 1 0-2.276 0z" fill="#8c9091"/>
    <path fill="#8b7866" d="M86.71 101.111h2.277v1.684H86.71z"/>
    <path d="M86.71 101.111h2.277v1.684H86.71z"/>
  </g>
  <g data-name="Disegno 8">
    <path d="M79.132 82.5v2.31h.009a1.13 1.13 0 0 0 2.259 0h.009V82.5a1.138 1.138 0 1 0-2.276 0z" fill="#8c9091"/>
    <path d="M79.131 82.807h2.277v1.684h-2.277z"/>
  </g>
  <g data-name="Disegno 23">
    <path d="M71.999 91.499h5.197v2.586h-5.197z"/>
    <path fill="#9fa1a2" d="M76.925 91.5h.272v2.586h-.272zM71.999 91.498h.27v2.587h-.27z"/>
  </g>
  <g data-name="Disegno 26">
    <path d="M79.665 66.924h4.315v9.357h-4.315z"/>
    <path fill="#8c9091" d="M81.202 64.168h1.265v3.488h-1.265zM81.179 74.936h1.265v3.49h-1.265z"/>
  </g>
  <g data-name="Artwork 24">
    <path fill="#8c9091" d="M47.898 148.793h37.506v51.068H47.898z"/>
    <path fill="#b8babb" d="M49.529 185.62h.023v.053H83.84l-.053-.053h.066v-34.963h-.109v-.053H49.552v.074l-.023-.021v34.963zM49.529 195.923v1.966h34.375v-3.719H56.518v-2.784h27.386v-3.72H49.529v2.232h2.205v1.19h-.679v3.624l.679.021v1.19h-2.205z"/>
  </g>
  <g data-name="Disegno 12">
    <path d="M83.363 110.912v23.756H59.618v-23.756h23.745"/>
    <g fill="#8c9091">
      <path d="M57.384 129.972h4.459v2.177h-4.459zM57.384 126.664h4.459v2.177h-4.459zM57.384 123.356h4.459v2.177h-4.459zM57.384 120.048h4.459v2.177h-4.459zM57.384 116.74h4.459v2.177h-4.459zM57.384 113.431h4.459v2.177h-4.459z"/>
    </g>
    <g fill="#8c9091">
      <path d="M81.139 129.972h4.459v2.177h-4.459zM81.139 126.664h4.459v2.177h-4.459zM81.139 123.356h4.459v2.177h-4.459zM81.139 120.048h4.459v2.177h-4.459zM81.139 116.74h4.459v2.177h-4.459zM81.139 113.431h4.459v2.177h-4.459z"/>
    </g>
    <g fill="#8c9091">
      <path d="M62.132 108.683h2.177v4.459h-2.177zM65.44 108.683h2.177v4.459H65.44zM68.748 108.683h2.177v4.459h-2.177zM72.056 108.683h2.177v4.459h-2.177zM75.364 108.683h2.177v4.459h-2.177zM78.672 108.683h2.177v4.459h-2.177z"/>
    </g>
    <g fill="#8c9091">
      <path d="M62.132 132.439h2.177v4.459h-2.177zM65.44 132.439h2.177v4.459H65.44zM68.748 132.439h2.177v4.459h-2.177zM72.056 132.439h2.177v4.459h-2.177zM75.364 132.439h2.177v4.459h-2.177zM78.672 132.439h2.177v4.459h-2.177z"/>
    </g>
  </g>
  <g>
    <g fill="#81b8bd">
      <path d="M86.661 141.4h.707l.001.756h-.707zM86.661 142.889l.707-.001.001.756h-.707zM86.662 144.378l.707-.001v.756h-.706zM86.662 145.866l.707-.001v.756h-.706z"/>
    </g>
    <g fill="#81b8bd">
      <path d="M75.247 141.4h.707l.001.756h-.707zM75.247 142.889l.707-.001.001.756h-.707zM75.248 144.378l.707-.001v.756h-.706zM75.248 145.866l.707-.001v.756h-.706z"/>
    </g>
    <path d="M86.662 147.124v-.735l-.002-5.473-.97-.002-9.736-.015v.735h.001l.001 4.739h-.001l.002.733 10.705.018z"/>
  </g>
  <g data-name="Artwork 12">
    <path fill="#8c9091" d="M46.224 139.983h2.805v5.66h-2.805zM53.386 139.983h2.805v5.66h-2.805z"/>
    <path d="M53.692 145a1.1 1.1 0 0 0 1.093-1.093v-2.187a1.1 1.1 0 0 0-1.093-1.095h-.306V145zM48.723 140.625a1.1 1.1 0 0 0-1.095 1.095v2.188A1.1 1.1 0 0 0 48.723 145h.306v-4.376z" fill="#8b7866"/>
    <path d="M49.029 140.625h4.358v4.376h-4.358z"/>
  </g>
  <g data-name="Disegno 8">
    <path d="M70.918 142.879v2.308h.009a1.13 1.13 0 0 0 2.259 0h.008v-2.308a1.138 1.138 0 1 0-2.276 0z" fill="#8c9091"/>
    <path fill="#8b7866" d="M70.918 143.185h2.277v1.684h-2.277z"/>
    <path d="M70.918 143.185h2.277v1.684h-2.277z"/>
  </g>
  <g data-name="Disegno 8">
    <path d="M86.231 169.439v2.307h.009a1.13 1.13 0 0 0 2.259 0h.009v-2.307a1.138 1.138 0 1 0-2.276 0z" fill="#8c9091"/>
    <path fill="#8b7866" d="M86.23 169.744h2.277v1.684H86.23z"/>
    <path d="M86.23 169.744h2.277v1.684H86.23z"/>
  </g>
  <g data-name="Disegno 8">
    <path d="M63.177 145.515h2.307v-.009a1.13 1.13 0 0 0 0-2.259v-.009h-2.307a1.138 1.138 0 1 0 0 2.276z" fill="#8c9091"/>
    <path fill="#8b7866" d="M63.482 143.239h1.684v2.277h-1.684z"/>
    <path d="M63.482 143.239h1.684v2.277h-1.684z"/>
  </g>
  <g data-name="Disegno 8">
    <path d="M86.236 139.4h2.308v-.009a1.13 1.13 0 0 0 0-2.259v-.008h-2.308a1.138 1.138 0 1 0 0 2.276z" fill="#8c9091"/>
    <path fill="#8b7866" d="M86.541 137.122h1.684v2.277h-1.684z"/>
    <path d="M86.541 137.122h1.684v2.277h-1.684z"/>
  </g>
  <g data-name="Disegno 8">
    <path d="M47.552 131.109h2.308v-.009a1.13 1.13 0 0 0 0-2.259v-.009h-2.308a1.138 1.138 0 1 0 0 2.276z" fill="#8c9091"/>
    <path fill="#8b7866" d="M47.858 128.833h1.684v2.277h-1.684z"/>
    <path d="M47.858 128.833h1.684v2.277h-1.684z"/>
  </g>
  <g data-name="Disegno 8">
    <path d="M47.552 127.321h2.308v-.009a1.131 1.131 0 0 0 0-2.26v-.008h-2.308a1.138 1.138 0 0 0 0 2.276z" fill="#8c9091"/>
    <path fill="#8b7866" d="M47.858 125.045h1.684v2.277h-1.684z"/>
    <path d="M47.858 125.045h1.684v2.277h-1.684z"/>
  </g>
  <g data-name="Disegno 8">
    <path d="M47.552 123.533h2.308v-.009a1.13 1.13 0 0 0 0-2.259v-.009h-2.308a1.139 1.139 0 0 0 0 2.277z" fill="#8c9091"/>
    <path fill="#8b7866" d="M47.858 121.256h1.684v2.277h-1.684z"/>
    <path d="M47.858 121.256h1.684v2.277h-1.684z"/>
  </g>
  <g data-name="Disegno 8">
    <path d="M47.552 119.744h2.308v-.009a1.131 1.131 0 0 0 0-2.26v-.008h-2.308a1.138 1.138 0 1 0 0 2.276z" fill="#8c9091"/>
    <path fill="#8b7866" d="M47.858 117.468h1.684v2.277h-1.684z"/>
    <path d="M47.858 117.468h1.684v2.277h-1.684z"/>
  </g>
  <g data-name="Disegno 8">
    <path d="M47.552 115.956h2.308v-.009a1.131 1.131 0 0 0 0-2.26v-.008h-2.308a1.138 1.138 0 0 0 0 2.276z" fill="#8c9091"/>
    <path fill="#8b7866" d="M47.858 113.68h1.684v2.277h-1.684z"/>
    <path d="M47.858 113.68h1.684v2.277h-1.684z"/>
  </g>
  <g data-name="Disegno 8">
    <path d="M47.552 112.167h2.308v-.009a1.13 1.13 0 0 0 0-2.259v-.009h-2.308a1.138 1.138 0 1 0 0 2.276z" fill="#8c9091"/>
    <path d="M47.858 109.891h1.684v2.277h-1.684z"/>
  </g>
  <g data-name="Disegno 8">
    <path d="M49.156 88.126h2.308v-.009a1.13 1.13 0 0 0 0-2.259v-.008h-2.308a1.138 1.138 0 1 0 0 2.276z" fill="#8c9091"/>
    <path fill="#8b7866" d="M49.462 85.85h1.684v2.277h-1.684z"/>
    <path d="M49.462 85.85h1.684v2.277h-1.684z"/>
  </g>
  <g data-name="Disegno 23">
    <path d="M47.351 88.836h5.197v2.586h-5.197z"/>
    <path fill="#9fa1a2" d="M52.277 88.837h.272v2.586h-.272zM47.351 88.835h.27v2.587h-.27z"/>
  </g>
  <g data-name="Disegno 13">
    <path fill="#eba900" d="M44.984 73.743h9.115v11.396h-9.115z"/>
    <path fill="#e65300" d="M44.984 73.743h9.115v11.396h-9.115z"/>
    <path d="M44.984 73.743h9.115v11.396h-9.115z"/>
  </g>
  <g>
    <path d="M98.154 60.413h-4.615a2.82 2.82 0 0 1 0-5.64h4.615z" fill="#c3b9af"/>
    <circle cx="93.521" cy="57.59" r="1.84" fill="#fff"/>
    <path d="M98.154 59.425a1.839 1.839 0 0 1 0-3.677z" fill="#fff"/>
    <path d="M98.154 69.313h-4.615a2.821 2.821 0 0 1 0-5.641h4.615z" fill="#c3b9af"/>
    <circle cx="93.521" cy="66.49" r="1.84" fill="#fff"/>
    <path d="M98.154 68.325a1.839 1.839 0 0 1 0-3.677z" fill="#fff"/>
    <path d="M98.154 78.212h-4.615a2.82 2.82 0 0 1 0-5.64h4.615z" fill="#c3b9af"/>
    <circle cx="93.521" cy="75.389" r="1.84" fill="#fff"/>
    <path d="M98.154 77.224a1.839 1.839 0 0 1 0-3.677z" fill="#fff"/>
    <path d="M98.154 87.112h-4.615a2.821 2.821 0 0 1 0-5.641h4.615z" fill="#c3b9af"/>
    <circle cx="93.521" cy="84.289" r="1.84" fill="#fff"/>
    <path d="M98.154 86.124a1.839 1.839 0 0 1 0-3.677z" fill="#fff"/>
    <path d="M98.154 96.011h-4.615a2.82 2.82 0 0 1 0-5.64h4.615z" fill="#c3b9af"/>
    <circle cx="93.521" cy="93.188" r="1.84" fill="#fff"/>
    <path d="M98.154 95.023a1.839 1.839 0 0 1 0-3.677z" fill="#fff"/>
    <g>
      <path d="M98.154 104.911h-4.615a2.821 2.821 0 0 1 0-5.641h4.615z" fill="#c3b9af"/>
      <circle cx="93.521" cy="102.088" r="1.84" fill="#fff"/>
      <path d="M98.154 103.923a1.839 1.839 0 0 1 0-3.677z" fill="#fff"/>
    </g>
    <g>
      <path d="M98.154 113.81h-4.615a2.82 2.82 0 0 1 0-5.64h4.615z" fill="#c3b9af"/>
      <circle cx="93.521" cy="110.987" r="1.84" fill="#fff"/>
      <path d="M98.154 112.822a1.839 1.839 0 0 1 0-3.677z" fill="#fff"/>
    </g>
    <g>
      <path d="M98.154 122.71h-4.615a2.821 2.821 0 0 1 0-5.641h4.615z" fill="#c3b9af"/>
      <circle cx="93.521" cy="119.887" r="1.84" fill="#fff"/>
      <path d="M98.154 121.722a1.839 1.839 0 0 1 0-3.677z" fill="#fff"/>
    </g>
    <g>
      <path d="M98.154 131.609h-4.615a2.82 2.82 0 0 1 0-5.64h4.615z" fill="#c3b9af"/>
      <circle cx="93.521" cy="128.786" r="1.84" fill="#fff"/>
      <path d="M98.154 130.621a1.839 1.839 0 0 1 0-3.677z" fill="#fff"/>
    </g>
    <g>
      <path d="M98.154 140.509h-4.615a2.821 2.821 0 0 1 0-5.641h4.615z" fill="#c3b9af"/>
      <circle cx="93.521" cy="137.686" r="1.84" fill="#fff"/>
      <path d="M98.154 139.521a1.839 1.839 0 0 1 0-3.677z" fill="#fff"/>
    </g>
    <g>
      <path d="M98.154 149.408h-4.615a2.82 2.82 0 0 1 0-5.64h4.615z" fill="#c3b9af"/>
      <circle cx="93.521" cy="146.585" r="1.84" fill="#fff"/>
      <path d="M98.154 148.42a1.839 1.839 0 0 1 0-3.677z" fill="#fff"/>
    </g>
    <g>
      <path d="M98.154 158.308h-4.615a2.821 2.821 0 0 1 0-5.641h4.615z" fill="#c3b9af"/>
      <circle cx="93.521" cy="155.485" r="1.84" fill="#fff"/>
      <path d="M98.154 157.32a1.839 1.839 0 0 1 0-3.677z" fill="#fff"/>
    </g>
    <g>
      <path d="M98.154 167.207h-4.615a2.82 2.82 0 0 1 0-5.64h4.615z" fill="#c3b9af"/>
      <circle cx="93.521" cy="164.384" r="1.84" fill="#fff"/>
      <path d="M98.154 166.219a1.839 1.839 0 0 1 0-3.677z" fill="#fff"/>
    </g>
    <g>
      <path d="M98.154 176.107h-4.615a2.821 2.821 0 0 1 0-5.641h4.615z" fill="#c3b9af"/>
      <circle cx="93.521" cy="173.284" r="1.84" fill="#fff"/>
      <path d="M98.154 175.119a1.839 1.839 0 0 1 0-3.677z" fill="#fff"/>
    </g>
    <g>
      <path d="M98.154 185.006h-4.615a2.82 2.82 0 0 1 0-5.64h4.615z" fill="#c3b9af"/>
      <circle cx="93.521" cy="182.183" r="1.84" fill="#fff"/>
      <path d="M98.154 184.018a1.839 1.839 0 0 1 0-3.677z" fill="#fff"/>
    </g>
  </g>
  <g>
    <path d="M35.145 179.366h4.615a2.82 2.82 0 0 1 0 5.64h-4.615z" fill="#c3b9af"/>
    <circle cx="39.779" cy="182.188" r="1.84" fill="#fff"/>
    <path d="M35.145 180.354a1.839 1.839 0 1 1 0 3.677z" fill="#fff"/>
    <path d="M35.145 170.466h4.615a2.821 2.821 0 0 1 0 5.641h-4.615z" fill="#c3b9af"/>
    <circle cx="39.779" cy="173.289" r="1.84" fill="#fff"/>
    <path d="M35.145 171.454a1.839 1.839 0 1 1 0 3.677z" fill="#fff"/>
    <path d="M35.145 161.567h4.615a2.82 2.82 0 0 1 0 5.64h-4.615z" fill="#c3b9af"/>
    <circle cx="39.779" cy="164.389" r="1.84" fill="#fff"/>
    <path d="M35.145 162.555a1.839 1.839 0 1 1 0 3.677z" fill="#fff"/>
    <path d="M35.145 152.667h4.615a2.821 2.821 0 0 1 0 5.641h-4.615z" fill="#c3b9af"/>
    <circle cx="39.779" cy="155.49" r="1.84" fill="#fff"/>
    <path d="M35.145 153.655a1.839 1.839 0 1 1 0 3.677z" fill="#fff"/>
    <path d="M35.145 143.768h4.615a2.82 2.82 0 0 1 0 5.64h-4.615z" fill="#c3b9af"/>
    <circle cx="39.779" cy="146.59" r="1.84" fill="#fff"/>
    <path d="M35.145 144.756a1.839 1.839 0 1 1 0 3.677z" fill="#fff"/>
    <g>
      <path d="M35.145 134.868h4.615a2.821 2.821 0 0 1 0 5.641h-4.615z" fill="#c3b9af"/>
      <circle cx="39.779" cy="137.691" r="1.84" fill="#fff"/>
      <path d="M35.145 135.856a1.839 1.839 0 1 1 0 3.677z" fill="#fff"/>
    </g>
    <g>
      <path d="M35.145 125.969h4.615a2.82 2.82 0 0 1 0 5.64h-4.615z" fill="#c3b9af"/>
      <circle cx="39.779" cy="128.791" r="1.84" fill="#fff"/>
      <path d="M35.145 126.957a1.839 1.839 0 1 1 0 3.677z" fill="#fff"/>
    </g>
    <g>
      <path d="M35.145 117.069h4.615a2.821 2.821 0 0 1 0 5.641h-4.615z" fill="#c3b9af"/>
      <circle cx="39.779" cy="119.892" r="1.84" fill="#fff"/>
      <path d="M35.145 118.057a1.839 1.839 0 1 1 0 3.677z" fill="#fff"/>
    </g>
    <g>
      <path d="M35.145 108.17h4.615a2.82 2.82 0 0 1 0 5.64h-4.615z" fill="#c3b9af"/>
      <circle cx="39.779" cy="110.992" r="1.84" fill="#fff"/>
      <path d="M35.145 109.158a1.839 1.839 0 1 1 0 3.677z" fill="#fff"/>
    </g>
    <g>
      <path d="M35.145 99.27h4.615a2.821 2.821 0 0 1 0 5.641h-4.615z" fill="#c3b9af"/>
      <circle cx="39.779" cy="102.093" r="1.84" fill="#fff"/>
      <path d="M35.145 100.258a1.839 1.839 0 1 1 0 3.677z" fill="#fff"/>
    </g>
    <g>
      <path d="M35.145 90.371h4.615a2.82 2.82 0 0 1 0 5.64h-4.615z" fill="#c3b9af"/>
      <circle cx="39.779" cy="93.193" r="1.84" fill="#fff"/>
      <path d="M35.145 91.359a1.839 1.839 0 1 1 0 3.677z" fill="#fff"/>
    </g>
    <g>
      <path d="M35.145 81.471h4.615a2.821 2.821 0 0 1 0 5.641h-4.615z" fill="#c3b9af"/>
      <circle cx="39.779" cy="84.294" r="1.84" fill="#fff"/>
      <path d="M35.145 82.459a1.839 1.839 0 1 1 0 3.677z" fill="#fff"/>
    </g>
    <g>
      <path d="M35.145 72.572h4.615a2.82 2.82 0 0 1 0 5.64h-4.615z" fill="#c3b9af"/>
      <circle cx="39.779" cy="75.394" r="1.84" fill="#fff"/>
      <path d="M35.145 73.56a1.839 1.839 0 1 1 0 3.677z" fill="#fff"/>
    </g>
    <g>
      <path d="M35.145 63.672h4.615a2.821 2.821 0 0 1 0 5.641h-4.615z" fill="#c3b9af"/>
      <circle cx="39.779" cy="66.495" r="1.84" fill="#fff"/>
      <path d="M35.145 64.66a1.839 1.839 0 1 1 0 3.677z" fill="#fff"/>
    </g>
    <g>
      <path d="M35.145 54.773h4.615a2.82 2.82 0 0 1 0 5.64h-4.615z" fill="#c3b9af"/>
      <circle cx="39.779" cy="57.595" r="1.84" fill="#fff"/>
      <path d="M35.145 55.761a1.839 1.839 0 1 1 0 3.677z" fill="#fff"/>
    </g>
  </g>
</svg>
